<svg id="Bold" enable-background="new 0 0 32 32" height="512" viewBox="0 0 32 32" width="512" xmlns="http://www.w3.org/2000/svg"><path d="m26 32h-20c-3.314 0-6-2.686-6-6v-20c0-3.314 2.686-6 6-6h20c3.314 0 6 2.686 6 6v20c0 3.314-2.686 6-6 6z" fill="#f5e6fe"/><path d="m15.572 24c3.758 0 6.095-2.769 6.095-6.341 0-1.347-.219-2.563-1.748-2.928.372-1.019 1.446-3.965 1.446-4.909 0-.831-.5-1.528-1.391-1.528-1.42 0-2.694 4.115-3.092 5.097-.31-.891-1.756-5.391-3.03-5.391-.99 0-1.455.715-1.455 1.615 0 1.103 1.089 3.963 1.484 5.063-.2-.072-.417-.135-.637-.135-.745 0-1.538.909-1.538 1.644 0 .278.156.669.255.928-1.175.313-1.627 1.081-1.627 2.241-.004 2.256 2.175 4.644 5.238 4.644zm3.22-12.625c.128-.385.672-2.009 1.181-2.009.274 0 .347.278.347.5 0 .597-1.229 3.894-1.5 4.625l-1.083-.187zm-5.395-1.865c0-.373.462-1.429 1.474 1.471l1.102 3.135c-.497-.041-.882-.094-1.127.044-.347-.9-1.449-3.741-1.449-4.65zm-.073 6.115c.933.001 2.137 2.957 2.137 3.357 0 .159-.156.356-.338.356-.666 0-2.449-2.403-2.449-3.053.004-.242.405-.66.65-.66zm-1.072 2.446c.363 0 1.729 1.885 1.729 2.285 0 .153-.245.259-.372.259-.513 0-.713-.485-1.627-1.606-.946.928.653 2.715 1.857 2.715.831 0 1.372-.756 1.21-1.313.118 0 .264.009.372-.019.035.847.29 1.856 1.328 1.928 0-.028.064-.222.064-.231 0-.544-.338-1.019-.338-1.572 0-.885.691-1.741 1.391-2.241.255-.187.564-.303.863-.409.309-.115.637-.25.872-.481-.035-.35-.181-.659-.538-.659-.882 0-3.84.125-3.84-1.241 0-.209.003-.409.554-.409 1.029 0 3.64.25 4.404.909.576.503.774 3.537-.987 5.459l-.001.001c-.927 1-2.111 1.519-3.493 1.519-1.891 0-3.385-1.019-4.105-2.759-.544-1.356.121-2.135.657-2.135zm3.801-.562c.31.097.628.126.946.188-.236.169-.446.375-.647.597-.089-.266-.197-.525-.299-.785z" fill="#be63f9"/></svg>