<?xml version="1.0" encoding="iso-8859-1"?>
<!-- Generator: Adobe Illustrator 19.0.0, SVG Export Plug-In . SVG Version: 6.00 Build 0)  -->
<svg version="1.1" id="Capa_1" xmlns="http://www.w3.org/2000/svg" xmlns:xlink="http://www.w3.org/1999/xlink" x="0px" y="0px"
	 viewBox="0 0 512 512" style="enable-background:new 0 0 512 512;" xml:space="preserve">
<rect x="52.068" style="fill:#AABECE;" width="399.186" height="260.339"/>
<rect x="86.78" y="34.712" style="fill:#CFDFE8;" width="329.763" height="190.915"/>
<rect x="52.068" y="364.475" style="fill:#AABECE;" width="295.051" height="138.847"/>
<g>
	<rect x="112.814" y="60.746" style="fill:#238892;" width="17.356" height="17.356"/>
	<rect x="112.814" y="95.458" style="fill:#238892;" width="17.356" height="104.136"/>
</g>
<g>
	<path style="fill:#CFDFE8;" d="M269.017,407.864h-17.356v-17.356h17.356V407.864z M234.305,407.864h-17.356v-17.356h17.356V407.864
		z M199.593,407.864h-17.356v-17.356h17.356V407.864z M164.881,407.864h-17.356v-17.356h17.356V407.864z M130.169,407.864h-17.356
		v-17.356h17.356V407.864z M95.458,407.864H78.102v-17.356h17.356V407.864z"/>
	<path style="fill:#CFDFE8;" d="M269.017,442.576h-17.356V425.22h17.356V442.576z M234.305,442.576h-17.356V425.22h17.356V442.576z
		 M199.593,442.576h-17.356V425.22h17.356V442.576z M164.881,442.576h-17.356V425.22h17.356V442.576z M130.169,442.576h-17.356
		V425.22h17.356V442.576z M95.458,442.576H78.102V425.22h17.356V442.576z"/>
</g>
<path style="fill:#AABECE;" d="M416.542,373.153c-23.951,0.026-43.364,19.439-43.39,43.39v52.068c0,23.96,19.43,43.39,43.39,43.39
	c23.96,0,43.39-19.43,43.39-43.39v-52.068C459.906,392.591,440.494,373.179,416.542,373.153z"/>
<path style="fill:#394D5C;" d="M416.542,477.288c-4.79,0-8.678-3.888-8.678-8.678v-17.356c0-4.79,3.888-8.678,8.678-8.678
	c4.79,0,8.678,3.888,8.678,8.678v17.356C425.22,473.4,421.333,477.288,416.542,477.288z"/>
<g>
	<path style="fill:#238892;" d="M225.627,477.288H121.492c-4.79,0-8.678-3.888-8.678-8.678s3.888-8.678,8.678-8.678h104.136
		c4.79,0,8.678,3.888,8.678,8.678S230.417,477.288,225.627,477.288z"/>
	<rect x="147.525" y="260.339" style="fill:#238892;" width="208.271" height="52.068"/>
</g>
<g>
	<path style="fill:#394D5C;" d="M95.458,373.153c-4.79,0-8.678-3.888-8.678-8.678v-69.424c0-4.79,3.888-8.678,8.678-8.678h52.068
		c4.79,0,8.678,3.888,8.678,8.678s-3.888,8.678-8.678,8.678h-43.39v60.746C104.136,369.265,100.248,373.153,95.458,373.153z"/>
	<path style="fill:#394D5C;" d="M416.542,355.797c-4.79,0-8.678-3.888-8.678-8.678v-43.39h-17.356c-4.79,0-8.678-3.888-8.678-8.678
		s3.888-8.678,8.678-8.678h26.034c4.79,0,8.678,3.888,8.678,8.678v52.068C425.22,351.909,421.333,355.797,416.542,355.797z"/>
</g>
<rect x="286.373" y="459.932" style="fill:#CFDFE8;" width="34.712" height="17.356"/>
<rect x="286.373" y="425.22" style="fill:#238892;" width="34.712" height="17.356"/>
<rect x="286.373" y="390.508" style="fill:#CFDFE8;" width="34.712" height="17.356"/>
<g>
</g>
<g>
</g>
<g>
</g>
<g>
</g>
<g>
</g>
<g>
</g>
<g>
</g>
<g>
</g>
<g>
</g>
<g>
</g>
<g>
</g>
<g>
</g>
<g>
</g>
<g>
</g>
<g>
</g>
</svg>
