<svg height="398pt" viewBox="-63 0 398 398.29401" width="398pt" xmlns="http://www.w3.org/2000/svg"><path d="m175.222656 356.875c6.679688 5.011719 10.613282 12.875 10.613282 21.226562v13.265626h26.53125v-13.265626c0-16.703124-7.863282-32.433593-21.226563-42.453124l-22.996094-17.246094-22.109375 16.582031zm0 0" fill="#d9176c"/><path d="m116.847656 41.125c-6.679687-5.007812-10.613281-12.875-10.613281-21.226562v-13.265626h-26.53125v13.265626c0 16.703124 7.863281 32.433593 21.226563 42.453124l22.996093 17.246094 22.109375-16.582031zm0 0" fill="#d9176c"/><path d="m191.140625 96.847656-22.996094-17.246094-22.109375 16.582032 29.1875 21.890625c11.722656 8.792969 14.097656 25.421875 5.304688 37.148437-1.507813 2.011719-3.292969 3.796875-5.304688 5.304688l-51.296875 38.472656-22.996093 17.246094c-23.449219 17.585937-28.199219 50.847656-10.613282 74.292968 3.015625 4.023438 6.589844 7.597657 10.613282 10.613282l22.996093 17.246094 22.109375-16.582032-29.1875-21.890625c-11.722656-8.792969-14.097656-25.421875-5.304687-37.148437 1.507812-2.011719 3.292969-3.796875 5.304687-5.304688l51.296875-38.472656 22.996094-17.246094c23.449219-17.585937 28.199219-50.847656 10.613281-74.292968-3.015625-4.023438-6.589844-7.597657-10.613281-10.613282zm0 0" fill="#d9176c"/><path d="m191.140625 216.246094-22.996094-17.246094-22.109375 16.582031 29.1875 21.890625c11.722656 8.792969 14.097656 25.425782 5.304688 37.148438-1.507813 2.011718-3.292969 3.796875-5.304688 5.304687l-29.1875 21.890625-22.109375 16.585938-22.996093 17.246094c-13.363282 10.019531-21.226563 25.75-21.226563 42.453124v13.265626h26.53125v-13.265626c0-8.351562 3.933594-16.21875 10.613281-21.226562l51.296875-38.472656 22.996094-17.246094c23.449219-17.585938 28.199219-50.847656 10.613281-74.292969-3.015625-4.027343-6.589844-7.597656-10.613281-10.617187zm0 0" fill="#32b1cc"/><path d="m185.835938 6.632812v13.265626c0 8.351562-3.933594 16.21875-10.613282 21.226562l-51.296875 38.472656-22.996093 17.246094c-23.449219 17.585938-28.199219 50.847656-10.613282 74.292969 3.015625 4.023437 6.589844 7.597656 10.613282 10.613281l22.996093 17.246094 22.109375-16.582032-29.1875-21.890624c-11.722656-8.792969-14.097656-25.421876-5.304687-37.148438 1.507812-2.007812 3.292969-3.796875 5.304687-5.304688l51.296875-38.472656 22.996094-17.242187c13.363281-10.023438 21.226563-25.75 21.226563-42.457031v-13.265626zm0 0" fill="#32b1cc"/><path d="m126.132812 0h39.800782v13.265625h-39.800782zm0 0" fill="#2d75bb"/><path d="m126.132812 26.535156h39.800782v13.265625h-39.800782zm0 0" fill="#2d75bb"/><path d="m126.132812 119.398438h39.800782v13.265624h-39.800782zm0 0" fill="#2d75bb"/><path d="m126.132812 145.933594h39.800782v13.265625h-39.800782zm0 0" fill="#2d75bb"/><path d="m126.132812 238.800781h39.800782v13.265625h-39.800782zm0 0" fill="#2d75bb"/><path d="m126.132812 265.335938h39.800782v13.265624h-39.800782zm0 0" fill="#2d75bb"/><path d="m126.132812 358.199219h39.800782v13.265625h-39.800782zm0 0" fill="#2d75bb"/><path d="m126.132812 384.734375h39.800782v13.265625h-39.800782zm0 0" fill="#2d75bb"/><g fill="#f49e21"><path d="m245.535156 0h13.265625v13.265625h-13.265625zm0 0"/><path d="m245.535156 26.535156h13.265625v13.265625h-13.265625zm0 0"/><path d="m232.269531 13.265625h13.265625v13.265625h-13.265625zm0 0"/><path d="m258.800781 13.265625h13.265625v13.265625h-13.265625zm0 0"/><path d="m13.367188 159.199219h13.265624v13.265625h-13.265624zm0 0"/><path d="m13.367188 185.734375h13.265624v13.265625h-13.265624zm0 0"/><path d="m.101562 172.464844h13.265626v13.269531h-13.265626zm0 0"/><path d="m26.632812 172.464844h13.265626v13.269531h-13.265626zm0 0"/><path d="m245.535156 358.199219h13.265625v13.265625h-13.265625zm0 0"/><path d="m245.535156 384.734375h13.265625v13.265625h-13.265625zm0 0"/><path d="m232.269531 371.46875h13.265625v13.265625h-13.265625zm0 0"/><path d="m258.800781 371.46875h13.265625v13.265625h-13.265625zm0 0"/></g></svg>