<svg height="512" viewBox="0 0 64 64" width="512" xmlns="http://www.w3.org/2000/svg"><g id="flat"><path d="m22.707 36.707-1.414-1.414 7.807-7.807 1.773 1.055z" fill="#d3843d"/><path d="m32 43v-4h-22v4l-5 4v12a2 2 0 0 0 2 2h28a2 2 0 0 0 2-2v-12z" fill="#426d78"/><path d="m8 35h26v4h-26z" fill="#72acb5"/><path d="m21 43a6 6 0 0 1 6 6v8a0 0 0 0 1 0 0h-12a0 0 0 0 1 0 0v-8a6 6 0 0 1 6-6z" fill="#72acb5"/><path d="m34 54h-2v-4.586l-1.707-1.707 1.414-1.414 2.293 2.293z" fill="#f4f4e6"/><path d="m32 56h2v2h-2z" fill="#f4f4e6"/><path d="m52 11 5 5a9.438 9.438 0 0 0 -2.97-.47c-4.86 0-9.03 3.47-9.03 3.47l5 4a12.14 12.14 0 0 0 -10 3l-3 3a5.655 5.655 0 0 1 -8 0l-1-1 4.93-4.93 3.74-3.74 3.17-3.17 10.16-10.16c2.62-2.62 5.53-4.4 7-1a31 31 0 0 1 1 5c-3-1-6 1-6 1z" fill="#eed98f"/><g fill="#f9bb4b"><path d="m44.32 16.05-.64 1.9c-1.71-.57-4.98.53-7.01 1.38l3.17-3.17a8.573 8.573 0 0 1 4.48-.11z"/><path d="m36.45 23.11-.9 1.78c-.78-.39-3.44.36-5.87 1.43l3.25-3.25a5.492 5.492 0 0 1 3.52.04z"/><path d="m49.55 10.17-1.1 1.66c-1.35-.9-3.46-.11-5.06.78l3.13-3.13a4.554 4.554 0 0 1 3.03.69z"/></g><path d="m12 58h-4v-7h2v5h2z" fill="#f4f4e6"/><path d="m18 30.973a14.008 14.008 0 0 0 -7-.973 2.656 2.656 0 0 1 -3-3 3.081 3.081 0 0 1 3-3c4 0 7 6.973 7 6.973z" fill="#426d78"/><path d="m22 27a18.073 18.073 0 0 0 -4-3c-2.094-1.031-1.285-3.408-1-4a2.268 2.268 0 0 1 3-1c3.25 1.375 2 8 2 8z" fill="#426d78"/></g></svg>