<svg height="464pt" viewBox="0 0 464 464" width="464pt" xmlns="http://www.w3.org/2000/svg"><path d="m16 48h432v96h-432zm0 0" fill="#7fcac9"/><path d="m160 0h144v144h-144zm0 0" fill="#f4f4e6"/><path d="m16 176h432v288h-432zm0 0" fill="#7fcac9"/><path d="m272 56h-24v-24h-32v24h-24v32h24v24h32v-24h24zm0 0" fill="#dd3e46"/><path d="m0 144h464v32h-464zm0 0" fill="#195c85"/><path d="m272 232h120v232h-120zm0 0" fill="#f4f4e6"/><path d="m72 352h144v40h-144zm0 0" fill="#195c85"/><path d="m88 232h112v120h-112zm0 0" fill="#cfdfe8"/><path d="m272 288h120v96h-120zm0 0" fill="#cfdfe8"/><path d="m360 344c-4.417969 0-8-3.582031-8-8v-8c0-4.417969 3.582031-8 8-8s8 3.582031 8 8v8c0 4.417969-3.582031 8-8 8zm0 0" fill="#195c85"/><g fill="#fff"><path d="m120 296c-3.234375 0-6.152344-1.949219-7.390625-4.9375s-.550781-6.429688 1.734375-8.71875l24-24c3.140625-3.03125 8.128906-2.988281 11.214844.097656 3.085937 3.085938 3.128906 8.074219.097656 11.214844l-24 24c-1.5 1.5-3.535156 2.34375-5.65625 2.34375zm0 0"/><path d="m128 328c-3.234375 0-6.152344-1.949219-7.390625-4.9375s-.550781-6.429688 1.734375-8.71875l40-40c3.140625-3.03125 8.128906-2.988281 11.214844.097656 3.085937 3.085938 3.128906 8.074219.097656 11.214844l-40 40c-1.5 1.5-3.535156 2.34375-5.65625 2.34375zm0 0"/></g></svg>