<?xml version="1.0"?>
<svg xmlns="http://www.w3.org/2000/svg" width="512" height="512" viewBox="0 0 128 128"><g><path d="M121.5,4.75H6.5A1.75,1.75,0,0,0,4.75,6.5v97.31a1.751,1.751,0,0,0,1.75,1.75H68.214c.017.024.037.048.054.072l-5.16,10.92a1.749,1.749,0,0,0,1.948,2.459L69.792,118l2.235,4.307a1.75,1.75,0,0,0,1.553.943h.033a1.752,1.752,0,0,0,1.55-1l4.337-9.181,4.337,9.181a1.752,1.752,0,0,0,1.551,1h.032a1.75,1.75,0,0,0,1.554-.946L89.2,118l4.744,1.012a1.751,1.751,0,0,0,1.947-2.46l-5.163-10.925c.017-.023.035-.044.051-.067H121.5a1.751,1.751,0,0,0,1.75-1.75V6.5A1.75,1.75,0,0,0,121.5,4.75ZM26.139,96.06A13.78,13.78,0,0,0,14.25,84.17V26.14A13.78,13.78,0,0,0,26.139,14.25h75.722A13.78,13.78,0,0,0,113.75,26.14V84.17a13.78,13.78,0,0,0-11.889,11.89H93.136a13.739,13.739,0,0,0-27.278,0ZM79.5,107.973a10.25,10.25,0,1,1,10.25-10.25A10.261,10.261,0,0,1,79.5,107.973Zm-5.991,9.587L72.283,115.2a1.746,1.746,0,0,0-1.919-.9l-2.58.551,3.053-6.461a13.681,13.681,0,0,0,5.7,2.754ZM88.625,114.3a1.753,1.753,0,0,0-1.919.908l-1.215,2.348-3.029-6.412a13.7,13.7,0,0,0,5.7-2.756l3.055,6.465ZM119.75,102.06H92.535a13.681,13.681,0,0,0,.575-2.5H103.5a1.751,1.751,0,0,0,1.75-1.75A10.261,10.261,0,0,1,115.5,87.56a1.751,1.751,0,0,0,1.75-1.75V24.5a1.75,1.75,0,0,0-1.75-1.75A10.261,10.261,0,0,1,105.25,12.5a1.75,1.75,0,0,0-1.75-1.75h-79a1.75,1.75,0,0,0-1.75,1.75A10.261,10.261,0,0,1,12.5,22.75a1.75,1.75,0,0,0-1.75,1.75V85.81a1.751,1.751,0,0,0,1.75,1.75A10.261,10.261,0,0,1,22.75,97.81a1.751,1.751,0,0,0,1.75,1.75H65.884a13.681,13.681,0,0,0,.575,2.5H8.25V8.25h111.5Z"/><path d="M24.5,61.4h79a1.75,1.75,0,0,0,0-3.5h-79a1.75,1.75,0,1,0,0,3.5Z"/><path d="M24.5,70.4h79a1.75,1.75,0,0,0,0-3.5h-79a1.75,1.75,0,0,0,0,3.5Z"/><path d="M24.5,52.4h79a1.75,1.75,0,0,0,0-3.5h-79a1.75,1.75,0,1,0,0,3.5Z"/><path d="M24.5,43.4h79a1.75,1.75,0,0,0,0-3.5h-79a1.75,1.75,0,1,0,0,3.5Z"/><path d="M24.5,34.4h79a1.75,1.75,0,0,0,0-3.5h-79a1.75,1.75,0,0,0,0,3.5Z"/><path d="M105.25,77.654a1.751,1.751,0,0,0-1.75-1.75h-79a1.75,1.75,0,0,0,0,3.5h79A1.75,1.75,0,0,0,105.25,77.654Z"/><path d="M82.513,90.584a1.75,1.75,0,0,0-1.365,3.223,4.247,4.247,0,0,1,2.6,3.916,1.75,1.75,0,0,0,3.5,0A7.74,7.74,0,0,0,82.513,90.584Z"/></g></svg>
