<svg height="512" viewBox="0 0 128 128" width="512" xmlns="http://www.w3.org/2000/svg"><g><g><path d="m42.43 117h-20l.521-15.049 2.895-83.759h13.168l2.895 83.759z" fill="#537980"/><path d="m88.188 55.71-1.847-25.518h-30.322l-1.846 25.518a268.461 268.461 0 0 1 -9.016 52.19l-2.727 9.85h57.5l-2.73-9.85a268.3 268.3 0 0 1 -9.012-52.19z" fill="#eaeaf0"/><path d="m6.5 115.5h115v6h-115z" fill="#eaeaf0"/><path d="m38.553 106.5h65.255v9h-65.255z" fill="#d8d8d8"/><rect fill="#d8d8d8" height="6" rx="3" width="39" x="51.68" y="30.192"/><path d="m69.1 70.37-3.02-5.23a5.054 5.054 0 0 1 .53-.24 12.053 12.053 0 0 1 9.14 0 5.054 5.054 0 0 1 .53.24l-3.02 5.23a6.031 6.031 0 0 0 -4.16 0z" fill="#385b60"/><path d="m67.34 80.61-3.02 5.23a11.673 11.673 0 0 1 -1.62-1.36 11.827 11.827 0 0 1 -3.47-7.47h6.04a6 6 0 0 0 2.07 3.6z" fill="#385b60"/><circle cx="71.18" cy="76" fill="#537980" r="6"/><path d="m83.14 77.01a11.994 11.994 0 0 1 -3.57 7.56 10.974 10.974 0 0 1 -1.53 1.27l-3.02-5.23a6 6 0 0 0 2.07-3.6z" fill="#385b60"/></g><g fill="#051720"><path d="m81.823 52.674c.043 0 .086 0 .129-.005a1.749 1.749 0 0 0 1.619-1.869l-.508-7.012a1.75 1.75 0 0 0 -3.491.252l.508 7.012a1.749 1.749 0 0 0 1.743 1.622z"/><path d="m80.18 14.25h11.391a1.75 1.75 0 0 0 0-3.5h-11.391a7.759 7.759 0 0 0 -7.75 7.75 1.75 1.75 0 0 0 3.5 0 4.255 4.255 0 0 1 4.25-4.25z"/><path d="m102.055 10.75h-3.1a1.75 1.75 0 0 0 0 3.5h3.1a1.75 1.75 0 0 0 0-3.5z"/><path d="m92.446 8.25h9.609a1.75 1.75 0 0 0 0-3.5h-9.609a1.75 1.75 0 0 0 0 3.5z"/><path d="m68.18 20.25a1.75 1.75 0 0 0 1.75-1.75 10.261 10.261 0 0 1 10.25-10.25h4.62a1.75 1.75 0 0 0 0-3.5h-4.62a13.766 13.766 0 0 0 -13.75 13.75 1.75 1.75 0 0 0 1.75 1.75z"/><path d="m121.5 113.75h-15.942v-7.25a1.75 1.75 0 0 0 -1.75-1.75h-5.632a267.875 267.875 0 0 1 -8.24-49.167l-1.291-17.74a4.75 4.75 0 0 0 -.965-9.4h-7.347a1.75 1.75 0 0 0 0 3.5h7.347a1.25 1.25 0 0 1 0 2.5h-33a1.25 1.25 0 0 1 0-2.5h8.153a1.75 1.75 0 0 0 0-3.5h-8.153a4.75 4.75 0 0 0 -.965 9.4l-1.291 17.741a267.055 267.055 0 0 1 -8.24 49.166h-.424l-.56-16.25h1.187a1.75 1.75 0 1 0 0-3.5h-1.311l-.671-19.353h1.189a1.75 1.75 0 0 0 0-3.5h-1.31l-.671-19.347h1.187a1.75 1.75 0 0 0 0-3.5h-1.308l-.67-19.353h1.192a1.75 1.75 0 0 0 0-3.5h-19.167a1.75 1.75 0 0 0 0 3.5h1.191l-.67 19.353h-1.311a1.75 1.75 0 0 0 0 3.5h1.19l-.67 19.352h-1.31a1.75 1.75 0 1 0 0 3.5h1.189l-.67 19.348h-1.309a1.75 1.75 0 0 0 0 3.5h1.188l-.356 10.271a1.75 1.75 0 0 0 3.5.122l.36-10.393h14.531l.563 16.25h-1.71a1.749 1.749 0 0 0 -1.75 1.75v7.25h-12.511l.208-6.021a1.75 1.75 0 0 0 -3.5-.121l-.212 6.142h-14.288a1.75 1.75 0 0 0 -1.75 1.75v6a1.75 1.75 0 0 0 1.75 1.75h79.5a1.75 1.75 0 0 0 0-3.5h-77.75v-2.5h111.5v2.5h-24.129a1.75 1.75 0 1 0 0 3.5h25.879a1.75 1.75 0 0 0 1.75-1.75v-6a1.75 1.75 0 0 0 -1.75-1.75zm-93.96-93.808h9.779l.671 19.358h-11.12zm-.791 22.858h11.362l.671 19.352h-12.7zm-1.461 42.2.67-19.353h12.942l.674 19.353zm30.628-29.163 1.3-17.9h27.927l1.3 17.894a271.4 271.4 0 0 0 8.119 48.914h-46.762a270.705 270.705 0 0 0 8.116-48.908zm-15.616 57.913v-5.5h61.755v5.5z"/><path d="m74.18 28.442h-4.513a1.75 1.75 0 0 0 0 3.5h4.513a1.75 1.75 0 0 0 0-3.5z"/><path d="m83.14 75.26h-4.247a7.749 7.749 0 0 0 -3.222-5.565l2.125-3.68a1.749 1.749 0 0 0 -.7-2.422 6.327 6.327 0 0 0 -.682-.311 13.9 13.9 0 0 0 -10.434-.014 6.468 6.468 0 0 0 -.72.325 1.749 1.749 0 0 0 -.7 2.422l2.126 3.68a7.746 7.746 0 0 0 -3.222 5.565h-4.234a1.751 1.751 0 0 0 -1.745 1.887 13.624 13.624 0 0 0 3.978 8.571 13.293 13.293 0 0 0 1.865 1.563 1.747 1.747 0 0 0 .992.309 1.8 1.8 0 0 0 .386-.043 1.751 1.751 0 0 0 1.13-.832l2.122-3.675a7.666 7.666 0 0 0 6.444 0l2.122 3.675a1.755 1.755 0 0 0 1.132.832 1.726 1.726 0 0 0 .384.043 1.754 1.754 0 0 0 .994-.31 12.682 12.682 0 0 0 1.766-1.46 13.77 13.77 0 0 0 4.089-8.663 1.75 1.75 0 0 0 -1.744-1.9zm-13.187-6.913-1.316-2.28a10.339 10.339 0 0 1 5.086 0l-1.315 2.279c-.045-.008-.092 0-.137-.011a6.957 6.957 0 0 0 -2.181 0c-.046.007-.09.004-.137.012zm-6.1 14.808a10.168 10.168 0 0 1 -2.541-4.395h2.632c.007.019.019.037.027.056a7.643 7.643 0 0 0 .475 1c.026.045.055.088.082.133a7.614 7.614 0 0 0 .6.875c.014.017.024.038.038.055zm4.458-4.042c-.084-.079-.165-.159-.243-.244-.095-.1-.182-.212-.267-.324s-.149-.2-.215-.307-.134-.236-.195-.358-.114-.226-.159-.343-.084-.257-.121-.388a3.865 3.865 0 0 1 -.1-.384 4.2 4.2 0 0 1 -.081-.765 4.247 4.247 0 0 1 3.189-4.1c.086-.021.169-.052.256-.069a4.25 4.25 0 0 1 .736-.074h.139a4.25 4.25 0 0 1 .736.074c.086.017.17.048.255.069a4.185 4.185 0 0 1 3.112 4.865 3.87 3.87 0 0 1 -.1.384c-.037.131-.071.262-.12.388s-.1.23-.16.343-.123.243-.194.358-.14.207-.216.307a4.137 4.137 0 0 1 -.267.324c-.077.085-.159.165-.243.244a4.2 4.2 0 0 1 -5.744 0zm10.2 4.042-1.311-2.275c.014-.017.024-.038.038-.055a7.876 7.876 0 0 0 .6-.875c.026-.045.055-.088.081-.133a7.78 7.78 0 0 0 .476-1c.007-.019.019-.037.026-.056h2.633a10.327 10.327 0 0 1 -2.544 4.394z"/></g></g></svg>