<?xml version="1.0"?>
<svg xmlns="http://www.w3.org/2000/svg" viewBox="0 0 64 64" width="512" height="512"><g id="flat"><path d="M32,20c-12.15,0-22,1.791-22,4V41c0,2.209,9.85,4,22,4s22-1.791,22-4V24C54,21.791,44.15,20,32,20Z" style="fill:#bfbfbf"/><path d="M32,8,3,21l7,3c0-2.209,9.85-4,22-4s22,1.791,22,4l7-3Z" style="fill:#6e7a88"/><path d="M32,45c12.15,0,22-1.791,22-4V37c0-2.209-9.85-4-22-4s-22,1.791-22,4v4C10,43.209,19.85,45,32,45Z" style="fill:#d8d8d2"/><ellipse cx="32" cy="41" rx="22" ry="4" style="fill:#6e7a88"/><rect x="13" y="25" width="2" height="2" style="fill:#fff"/><rect x="17" y="24" width="2" height="2" style="fill:#fff"/><path d="M49,22.277V15H47v7.277a2,2,0,1,0,2,0Z" style="fill:#113142"/><polygon points="50 56 46 54 46 30 48 26 50 30 50 56" style="fill:#113142"/></g></svg>
