<svg height="512" viewBox="0 0 64 64" width="512" xmlns="http://www.w3.org/2000/svg"><g id="flat"><path d="m6 31 14-1h27l11 1c1.657 0 3-3.134 3-7s-1.343-7-3-7l-14 1h-24l-14-1z" fill="#87cee9"/><rect fill="#f9bb4b" height="12" rx="3" width="6" x="26" y="14"/><rect fill="#ffd782" height="12" rx="3" width="6" x="20" y="14"/><rect fill="#ffd782" height="12" rx="3" width="6" x="32" y="14"/><path d="m41 14a2.892 2.892 0 0 0 -3 2.769v6.231a3 3 0 0 0 3 3 3 3 0 0 0 3-3v-6.231a2.892 2.892 0 0 0 -3-2.769z" fill="#f9bb4b"/><ellipse cx="6" cy="24" fill="#32b1cc" rx="3" ry="7"/><path d="m23 45h21v4h-21z" fill="#50b4f8"/><path d="m23 49h21v12h-21z" fill="#195c85"/><path d="m35 56h2v2h-2z" fill="#50b4f8"/><path d="m39 56h2v2h-2z" fill="#50b4f8"/><path d="m14 3 2 4 4 1-3 3 1 4-4-2.05-4 2.05 1-4-3-3 4-1z" fill="#dd3e46"/><path d="m57.949 26.316-1.9-.632a6.663 6.663 0 0 0 .26-3.59l-7.187.9-.248-1.984 8-1a1.01 1.01 0 0 1 1.019.545 7.92 7.92 0 0 1 .056 5.761z" fill="#f4f4e6"/><path d="m12 25h2v2h-2z" fill="#f4f4e6"/><path d="m37 26a2 2 0 0 0 -2 2v2h-15v4l5 6v5h17v-5l5-6v-8z" fill="#ffd782"/><g fill="#f9bb4b"><path d="m43 33h-6a4 4 0 0 1 -4-4h2a2 2 0 0 0 2 2h6z"/><path d="m30 42h-2v-2.667l-2.8-3.733 1.6-1.2 3.2 4.267z"/></g></g></svg>